:FULLY-SPECIFIED
:FORCE-ALL-JOINTS-BE-3DOF
:DEGREES
306
root 9.13628 15.4598 -23.7347 14.8688 61.759 18.85
lfemur -15.4468 16.4933 -18.5481
ltibia 51.0481 -0 0
lfoot -17.9696 -25.0726 -0.25986
ltoes 57.1161 -0 0
rfemur -50.844 -13.1036 26.6755
rtibia 56.3045 -0 0
rfoot 2.62518 -3.79735 0.358505
rtoes 14.2757 -0 0
lowerback 8.48494 -3.10913 -6.93702
upperback 4.60219 -4.5044 -4.07306
thorax 0.285012 -2.25663 -0.0458801
lowerneck -3.84241 -11.6339 -2.66338
upperneck -1.56685 -15.4418 9.58327
head 1.24368 -7.67759 3.06154
lclavicle -2.84262e-14 -2.38542e-15 0
lhumerus -44.2631 -45.8935 103.418
lradius 59.7463 -0 0
lwrist 19.0741 0 0
lhand 17.6694 12.7092 0.0729472
lfingers 7.12502 -0 0
lthumb 42.35 37.115 0.046616
rclavicle -2.84262e-14 -2.38542e-15 0
rhumerus -35.9031 35.7851 -77.446
rradius 73.651 -0 0
rwrist -2.01649 0 0
rhand -14.0028 -14.1694 -0.330481
rfingers 7.12502 -0 0
rthumb 12.107 -43.4359 -0.248864
307
root 9.09677 15.4778 -23.7053 14.2419 60.4133 17.8693
lfemur -15.524 16.9648 -18.3836
ltibia 50.6644 -0 0
lfoot -18.3344 -24.3293 -0.255126
ltoes 57.0896 -0 0
rfemur -51.869 -13.8434 26.8509
rtibia 56.774 -0 0
rfoot 2.90603 -2.46094 0.351953
rtoes 11.2534 -0 0
lowerback 8.62532 -2.94862 -6.86771
upperback 4.61804 -4.30074 -4.08021
thorax 0.20735 -2.15264 -0.0962266
lowerneck -3.94363 -11.58 -2.31432
upperneck -2.00514 -15.3488 9.66819
head 1.08924 -7.64013 3.04569
lclavicle -2.84262e-14 -2.38542e-15 0
lhumerus -44.6292 -46.4622 103.698
lradius 59.6651 -0 0
lwrist 19.0227 0 0
lhand 17.3961 12.4309 0.0716203
lfingers 7.12502 -0 0
lthumb 42.0943 36.9251 0.0457682
rclavicle -2.84262e-14 -2.38542e-15 0
rhumerus -32.4977 35.2492 -74.8588
rradius 73.4123 -0 0
rwrist -3.75826 0 0
rhand -12.8475 -14.4685 -0.324449
rfingers 7.12502 -0 0
rthumb 13.2203 -43.6695 -0.244323
308
root 9.05727 15.4958 -23.676 13.6847 59.0627 16.9561
lfemur -15.6001 17.4365 -18.2193
ltibia 50.2807 -0 0
lfoot -18.6992 -23.5861 -0.24566
ltoes 57.0632 -0 0
rfemur -52.8997 -14.5801 27.0404
rtibia 57.2435 -0 0
rfoot 3.18664 -1.12459 0.338853
rtoes 8.23105 -0 0
lowerback 8.76588 -2.78828 -6.79801
upperback 4.63387 -4.09707 -4.08729
thorax 0.129603 -2.04872 -0.146711
lowerneck -4.0445 -11.5255 -1.96542
upperneck -2.44309 -15.2552 9.75234
head 0.934797 -7.60272 3.02975
lclavicle -2.84262e-14 -2.38542e-15 0
lhumerus -45.0031 -47.0295 103.987
lradius 59.5838 -0 0
lwrist 18.9713 0 0
lhand 17.1229 12.1527 0.0689667
lfingers 7.12502 -0 0
lthumb 41.8386 36.7351 0.0440726
rclavicle -2.84262e-14 -2.38542e-15 0
rhumerus -29.1499 34.5901 -72.3335
rradius 73.1737 -0 0
rwrist -5.50003 0 0
rhand -11.6922 -14.7675 -0.312387
rfingers 7.12502 -0 0
rthumb 14.3336 -43.9031 -0.235243
309
root 9.01776 15.5138 -23.6466 13.1887 57.708 16.1019
lfemur -15.6749 17.9084 -18.0553
ltibia 49.897 -0 0
lfoot -19.0638 -22.843 -0.231463
ltoes 57.0367 -0 0
rfemur -53.9364 -15.3134 27.2444
rtibia 57.713 -0 0
rfoot 3.46688 0.211675 0.319213
rtoes 5.20873 -0 0
lowerback 8.90661 -2.62811 -6.72793
upperback 4.64967 -3.89341 -4.09432
thorax 0.0517684 -1.94487 -0.197333
lowerneck -4.14501 -11.4705 -1.61669
upperneck -2.8807 -15.1609 9.83571
head 0.780361 -7.56536 3.01371
lclavicle -2.84262e-14 -2.38542e-15 0
lhumerus -45.3854 -47.5956 104.283
lradius 59.5026 -0 0
lwrist 18.9198 0 0
lhand 16.8497 11.8745 0.0649863
lfingers 7.12502 -0 0
lthumb 41.5829 36.5452 0.0415293
rclavicle -2.84262e-14 -2.38542e-15 0
rhumerus -25.8685 33.8124 -69.8803
rradius 72.9351 -0 0
rwrist -7.2418 0 0
rhand -10.537 -15.0661 -0.2943
rfingers 7.12502 -0 0
rthumb 15.4468 -44.1364 -0.221628
310
root 8.97825 15.5319 -23.6172 12.7471 56.3496 15.2995
lfemur -15.7485 18.3805 -17.8914
ltibia 49.5133 -0 0
lfoot -19.4283 -22.0999 -0.212539
ltoes 57.0102 -0 0
rfemur -54.9796 -16.0429 27.4628
rtibia 58.1825 -0 0
rfoot 3.74657 1.54783 0.293044
rtoes 2.18642 -0 0
lowerback 9.04753 -2.46812 -6.65747
upperback 4.66544 -3.68974 -4.10129
thorax -0.026153 -1.84109 -0.248093
lowerneck -4.24516 -11.4148 -1.26812
upperneck -3.31798 -15.0661 9.91829
head 0.625928 -7.52803 2.99756
lclavicle -2.84262e-14 -2.38542e-15 0
lhumerus -45.7762 -48.1603 104.589
lradius 59.4213 -0 0
lwrist 18.8684 0 0
lhand 16.5765 11.5963 0.0596795
lfingers 7.12502 -0 0
lthumb 41.3273 36.3552 0.0381384
rclavicle -2.84262e-14 -2.38542e-15 0
rhumerus -22.6611 32.9212 -67.5074
rradius 72.6964 -0 0
rwrist -8.98357 0 0
rhand -9.38187 -15.3643 -0.270198
rfingers 7.12502 -0 0
rthumb 16.56 -44.3694 -0.203482
311
root 8.93875 15.5499 -23.5879 12.3537 54.9881 14.5428
lfemur -15.8209 18.8529 -17.7278
ltibia 49.1295 -0 0
lfoot -19.7924 -21.357 -0.18889
ltoes 56.9838 -0 0
rfemur -56.0295 -16.7685 27.6959
rtibia 58.652 -0 0
rfoot 4.02559 2.88384 0.26036
rtoes -0.835905 0 0
lowerback 9.18862 -2.3083 -6.58662
upperback 4.68118 -3.48607 -4.10821
thorax -0.104162 -1.73738 -0.298991
lowerneck -4.34494 -11.3585 -0.919725
upperneck -3.75491 -14.9706 10.0001
head 0.471497 -7.49075 2.98132
lclavicle -2.84262e-14 -2.38542e-15 0
lhumerus -46.176 -48.7235 104.904
lradius 59.3401 -0 0
lwrist 18.817 0 0
lhand 16.3033 11.3182 0.0530464
lfingers 7.12502 -0 0
lthumb 41.0716 36.1653 0.0338999
rclavicle -2.84262e-14 -2.38542e-15 0
rhumerus -19.5333 31.9217 -65.2216
rradius 72.4578 -0 0
rwrist -10.7253 0 0
rhand -8.22691 -15.662 -0.240089
rfingers 7.12502 -0 0
rthumb 17.6731 -44.602 -0.180813
